<svg xmlns="http://www.w3.org/2000/svg" xmlns:xlink="http://www.w3.org/1999/xlink" width="1080" zoomAndPan="magnify" viewBox="0 0 810 809.999993" height="1080" preserveAspectRatio="xMidYMid meet" version="1.0"><defs><g/><clipPath id="9eb5b18b27"><path d="M 405 0 C 181.324219 0 0 181.324219 0 405 C 0 628.675781 181.324219 810 405 810 C 628.675781 810 810 628.675781 810 405 C 810 181.324219 628.675781 0 405 0 Z M 405 0 " clip-rule="nonzero"/></clipPath><clipPath id="2e9b1f5438"><path d="M 23.109375 23.109375 L 786.890625 23.109375 L 786.890625 786.890625 L 23.109375 786.890625 Z M 23.109375 23.109375 " clip-rule="nonzero"/></clipPath><clipPath id="6a3232dc08"><path d="M 405 23.109375 C 194.085938 23.109375 23.109375 194.085938 23.109375 405 C 23.109375 615.914062 194.085938 786.890625 405 786.890625 C 615.914062 786.890625 786.890625 615.914062 786.890625 405 C 786.890625 194.085938 615.914062 23.109375 405 23.109375 Z M 405 23.109375 " clip-rule="nonzero"/></clipPath></defs><g clip-path="url(#9eb5b18b27)"><rect x="-81" width="972" fill="#20cd8d" y="-80.999999" height="971.999992" fill-opacity="1"/></g><g clip-path="url(#2e9b1f5438)"><g clip-path="url(#6a3232dc08)"><path fill="#172627" d="M 23.109375 23.109375 L 786.890625 23.109375 L 786.890625 786.890625 L 23.109375 786.890625 Z M 23.109375 23.109375 " fill-opacity="1" fill-rule="nonzero"/></g></g><g fill="#ffffff" fill-opacity="1"><g transform="translate(137.538633, 404.989832)"><g><path d="M 58.78125 1.9375 C 41.132812 1.9375 26.882812 -1.539062 16.03125 -8.5 C 10.851562 -11.582031 8.265625 -15.957031 8.265625 -21.625 C 8.265625 -24.863281 9.15625 -27.492188 10.9375 -29.515625 C 12.71875 -31.535156 14.898438 -32.546875 17.484375 -32.546875 C 20.242188 -32.546875 24.050781 -31.253906 28.90625 -28.671875 C 34.09375 -26.234375 38.832031 -24.367188 43.125 -23.078125 C 47.414062 -21.785156 52.878906 -21.140625 59.515625 -21.140625 C 66.316406 -21.140625 71.617188 -22.269531 75.421875 -24.53125 C 79.234375 -26.800781 81.140625 -29.960938 81.140625 -34.015625 C 81.140625 -36.765625 80.367188 -38.945312 78.828125 -40.5625 C 77.285156 -42.1875 74.53125 -43.6875 70.5625 -45.0625 C 66.601562 -46.4375 60.570312 -48.015625 52.46875 -49.796875 C 38.050781 -52.710938 27.722656 -56.84375 21.484375 -62.1875 C 15.253906 -67.53125 12.140625 -74.898438 12.140625 -84.296875 C 12.140625 -91.421875 14.242188 -97.859375 18.453125 -103.609375 C 22.671875 -109.359375 28.460938 -113.8125 35.828125 -116.96875 C 43.203125 -120.125 51.582031 -121.703125 60.96875 -121.703125 C 67.769531 -121.703125 74.328125 -120.851562 80.640625 -119.15625 C 86.960938 -117.457031 92.632812 -114.988281 97.65625 -111.75 C 102.832031 -108.507812 105.421875 -104.21875 105.421875 -98.875 C 105.421875 -95.632812 104.53125 -92.921875 102.75 -90.734375 C 100.96875 -88.546875 98.785156 -87.453125 96.203125 -87.453125 C 94.421875 -87.453125 92.675781 -87.816406 90.96875 -88.546875 C 89.269531 -89.273438 87.125 -90.367188 84.53125 -91.828125 C 79.832031 -94.253906 75.785156 -96.070312 72.390625 -97.28125 C 68.992188 -98.5 64.785156 -99.109375 59.765625 -99.109375 C 53.765625 -99.109375 49.023438 -97.894531 45.546875 -95.46875 C 42.066406 -93.039062 40.328125 -89.722656 40.328125 -85.515625 C 40.328125 -81.460938 42.109375 -78.382812 45.671875 -76.28125 C 49.234375 -74.175781 56.113281 -72.070312 66.3125 -69.96875 C 77.164062 -67.695312 85.671875 -65.101562 91.828125 -62.1875 C 97.984375 -59.269531 102.394531 -55.625 105.0625 -51.25 C 107.738281 -46.882812 109.078125 -41.300781 109.078125 -34.5 C 109.078125 -23.476562 104.5 -14.648438 95.34375 -8.015625 C 86.195312 -1.378906 74.007812 1.9375 58.78125 1.9375 Z M 58.78125 1.9375 "/></g></g></g><g fill="#ffffff" fill-opacity="1"><g transform="translate(255.354269, 404.989832)"><g><path d="M 109.796875 -32.546875 C 112.554688 -32.546875 114.785156 -31.492188 116.484375 -29.390625 C 118.179688 -27.285156 119.03125 -24.453125 119.03125 -20.890625 C 119.03125 -15.867188 116.035156 -11.660156 110.046875 -8.265625 C 104.535156 -5.179688 98.296875 -2.707031 91.328125 -0.84375 C 84.367188 1.007812 77.734375 1.9375 71.421875 1.9375 C 52.304688 1.9375 37.160156 -3.566406 25.984375 -14.578125 C 14.816406 -25.585938 9.234375 -40.648438 9.234375 -59.765625 C 9.234375 -71.910156 11.660156 -82.675781 16.515625 -92.0625 C 21.378906 -101.457031 28.222656 -108.742188 37.046875 -113.921875 C 45.867188 -119.109375 55.867188 -121.703125 67.046875 -121.703125 C 77.734375 -121.703125 87.046875 -119.351562 94.984375 -114.65625 C 102.921875 -109.957031 109.070312 -103.316406 113.4375 -94.734375 C 117.8125 -86.148438 120 -76.03125 120 -64.375 C 120 -57.40625 116.921875 -53.921875 110.765625 -53.921875 L 39.109375 -53.921875 C 40.078125 -42.753906 43.234375 -34.535156 48.578125 -29.265625 C 53.921875 -24.003906 61.695312 -21.375 71.90625 -21.375 C 77.082031 -21.375 81.65625 -22.019531 85.625 -23.3125 C 89.59375 -24.613281 94.085938 -26.398438 99.109375 -28.671875 C 103.972656 -31.253906 107.535156 -32.546875 109.796875 -32.546875 Z M 67.78125 -100.328125 C 59.519531 -100.328125 52.914062 -97.734375 47.96875 -92.546875 C 43.03125 -87.367188 40.078125 -79.921875 39.109375 -70.203125 L 94.015625 -70.203125 C 93.691406 -80.078125 91.257812 -87.566406 86.71875 -92.671875 C 82.1875 -97.773438 75.875 -100.328125 67.78125 -100.328125 Z M 67.78125 -100.328125 "/></g></g></g><g fill="#ffffff" fill-opacity="1"><g transform="translate(384.344168, 404.989832)"><g><path d="M 84.78125 -121.703125 C 99.03125 -121.703125 109.632812 -117.648438 116.59375 -109.546875 C 123.5625 -101.453125 127.046875 -89.226562 127.046875 -72.875 L 127.046875 -13.125 C 127.046875 -8.582031 125.707031 -5.015625 123.03125 -2.421875 C 120.363281 0.160156 116.679688 1.453125 111.984375 1.453125 C 107.285156 1.453125 103.5625 0.160156 100.8125 -2.421875 C 98.0625 -5.015625 96.6875 -8.582031 96.6875 -13.125 L 96.6875 -71.171875 C 96.6875 -80.398438 94.941406 -87.117188 91.453125 -91.328125 C 87.972656 -95.546875 82.507812 -97.65625 75.0625 -97.65625 C 66.3125 -97.65625 59.304688 -94.898438 54.046875 -89.390625 C 48.785156 -83.890625 46.15625 -76.523438 46.15625 -67.296875 L 46.15625 -13.125 C 46.15625 -8.582031 44.773438 -5.015625 42.015625 -2.421875 C 39.265625 0.160156 35.539062 1.453125 30.84375 1.453125 C 26.15625 1.453125 22.472656 0.160156 19.796875 -2.421875 C 17.128906 -5.015625 15.796875 -8.582031 15.796875 -13.125 L 15.796875 -107.125 C 15.796875 -111.332031 17.171875 -114.734375 19.921875 -117.328125 C 22.671875 -119.921875 26.394531 -121.21875 31.09375 -121.21875 C 35.300781 -121.21875 38.738281 -119.960938 41.40625 -117.453125 C 44.082031 -114.941406 45.421875 -111.660156 45.421875 -107.609375 L 45.421875 -101.0625 C 49.472656 -107.695312 54.898438 -112.796875 61.703125 -116.359375 C 68.503906 -119.921875 76.195312 -121.703125 84.78125 -121.703125 Z M 84.78125 -121.703125 "/></g></g></g><g fill="#ffffff" fill-opacity="1"><g transform="translate(526.451658, 404.989832)"><g><path d="M 114.90625 -172.46875 C 119.4375 -172.46875 123.160156 -171.171875 126.078125 -168.578125 C 128.992188 -165.992188 130.453125 -162.597656 130.453125 -158.390625 L 130.453125 -13.125 C 130.453125 -8.75 129.070312 -5.265625 126.3125 -2.671875 C 123.5625 -0.078125 119.921875 1.21875 115.390625 1.21875 C 110.859375 1.21875 107.210938 -0.078125 104.453125 -2.671875 C 101.703125 -5.265625 100.328125 -8.75 100.328125 -13.125 L 100.328125 -19.1875 C 96.765625 -12.550781 91.617188 -7.367188 84.890625 -3.640625 C 78.171875 0.078125 70.519531 1.9375 61.9375 1.9375 C 51.738281 1.9375 42.628906 -0.648438 34.609375 -5.828125 C 26.597656 -11.015625 20.363281 -18.34375 15.90625 -27.8125 C 11.457031 -37.289062 9.234375 -48.179688 9.234375 -60.484375 C 9.234375 -72.796875 11.457031 -83.566406 15.90625 -92.796875 C 20.363281 -102.023438 26.554688 -109.148438 34.484375 -114.171875 C 42.421875 -119.191406 51.570312 -121.703125 61.9375 -121.703125 C 70.519531 -121.703125 78.128906 -119.921875 84.765625 -116.359375 C 91.410156 -112.796875 96.515625 -107.773438 100.078125 -101.296875 L 100.078125 -158.875 C 100.078125 -162.914062 101.410156 -166.191406 104.078125 -168.703125 C 106.753906 -171.210938 110.363281 -172.46875 114.90625 -172.46875 Z M 69.96875 -21.625 C 79.675781 -21.625 87.160156 -24.941406 92.421875 -31.578125 C 97.691406 -38.222656 100.328125 -47.695312 100.328125 -60 C 100.328125 -72.3125 97.691406 -81.742188 92.421875 -88.296875 C 87.160156 -94.859375 79.753906 -98.140625 70.203125 -98.140625 C 60.484375 -98.140625 52.953125 -94.898438 47.609375 -88.421875 C 42.265625 -81.941406 39.59375 -72.628906 39.59375 -60.484375 C 39.59375 -48.179688 42.265625 -38.628906 47.609375 -31.828125 C 52.953125 -25.023438 60.40625 -21.625 69.96875 -21.625 Z M 69.96875 -21.625 "/></g></g></g><g fill="#ffffff" fill-opacity="1"><g transform="translate(234.442755, 564.420779)"><g><path d="M 156.921875 -121.703125 C 169.878906 -121.703125 179.800781 -117.851562 186.6875 -110.15625 C 193.570312 -102.46875 197.015625 -90.039062 197.015625 -72.875 L 197.015625 -13.125 C 197.015625 -8.425781 195.59375 -4.820312 192.75 -2.3125 C 189.914062 0.195312 186.234375 1.453125 181.703125 1.453125 C 177.328125 1.453125 173.722656 0.195312 170.890625 -2.3125 C 168.054688 -4.820312 166.640625 -8.425781 166.640625 -13.125 L 166.640625 -72.875 C 166.640625 -81.78125 165.0625 -88.132812 161.90625 -91.9375 C 158.75 -95.75 153.929688 -97.65625 147.453125 -97.65625 C 139.515625 -97.65625 133.195312 -94.941406 128.5 -89.515625 C 123.800781 -84.085938 121.453125 -76.679688 121.453125 -67.296875 L 121.453125 -13.125 C 121.453125 -8.425781 120.035156 -4.820312 117.203125 -2.3125 C 114.367188 0.195312 110.769531 1.453125 106.40625 1.453125 C 102.03125 1.453125 98.382812 0.195312 95.46875 -2.3125 C 92.550781 -4.820312 91.09375 -8.425781 91.09375 -13.125 L 91.09375 -72.875 C 91.09375 -81.78125 89.515625 -88.132812 86.359375 -91.9375 C 83.203125 -95.75 78.382812 -97.65625 71.90625 -97.65625 C 63.96875 -97.65625 57.691406 -94.941406 53.078125 -89.515625 C 48.460938 -84.085938 46.15625 -76.679688 46.15625 -67.296875 L 46.15625 -13.125 C 46.15625 -8.425781 44.695312 -4.820312 41.78125 -2.3125 C 38.863281 0.195312 35.21875 1.453125 30.84375 1.453125 C 26.476562 1.453125 22.878906 0.195312 20.046875 -2.3125 C 17.210938 -4.820312 15.796875 -8.425781 15.796875 -13.125 L 15.796875 -107.125 C 15.796875 -111.664062 17.25 -115.148438 20.15625 -117.578125 C 23.070312 -120.003906 26.71875 -121.21875 31.09375 -121.21875 C 35.300781 -121.21875 38.738281 -120.039062 41.40625 -117.6875 C 44.082031 -115.34375 45.421875 -111.984375 45.421875 -107.609375 L 45.421875 -101.78125 C 49.148438 -108.257812 54.128906 -113.195312 60.359375 -116.59375 C 66.597656 -120 73.765625 -121.703125 81.859375 -121.703125 C 99.679688 -121.703125 111.585938 -114.253906 117.578125 -99.359375 C 121.140625 -106.160156 126.398438 -111.582031 133.359375 -115.625 C 140.328125 -119.675781 148.179688 -121.703125 156.921875 -121.703125 Z M 156.921875 -121.703125 "/></g></g></g><g fill="#ffffff" fill-opacity="1"><g transform="translate(446.510881, 564.420779)"><g><path d="M 109.796875 -32.546875 C 112.554688 -32.546875 114.785156 -31.492188 116.484375 -29.390625 C 118.179688 -27.285156 119.03125 -24.453125 119.03125 -20.890625 C 119.03125 -15.867188 116.035156 -11.660156 110.046875 -8.265625 C 104.535156 -5.179688 98.296875 -2.707031 91.328125 -0.84375 C 84.367188 1.007812 77.734375 1.9375 71.421875 1.9375 C 52.304688 1.9375 37.160156 -3.566406 25.984375 -14.578125 C 14.816406 -25.585938 9.234375 -40.648438 9.234375 -59.765625 C 9.234375 -71.910156 11.660156 -82.675781 16.515625 -92.0625 C 21.378906 -101.457031 28.222656 -108.742188 37.046875 -113.921875 C 45.867188 -119.109375 55.867188 -121.703125 67.046875 -121.703125 C 77.734375 -121.703125 87.046875 -119.351562 94.984375 -114.65625 C 102.921875 -109.957031 109.070312 -103.316406 113.4375 -94.734375 C 117.8125 -86.148438 120 -76.03125 120 -64.375 C 120 -57.40625 116.921875 -53.921875 110.765625 -53.921875 L 39.109375 -53.921875 C 40.078125 -42.753906 43.234375 -34.535156 48.578125 -29.265625 C 53.921875 -24.003906 61.695312 -21.375 71.90625 -21.375 C 77.082031 -21.375 81.65625 -22.019531 85.625 -23.3125 C 89.59375 -24.613281 94.085938 -26.398438 99.109375 -28.671875 C 103.972656 -31.253906 107.535156 -32.546875 109.796875 -32.546875 Z M 67.78125 -100.328125 C 59.519531 -100.328125 52.914062 -97.734375 47.96875 -92.546875 C 43.03125 -87.367188 40.078125 -79.921875 39.109375 -70.203125 L 94.015625 -70.203125 C 93.691406 -80.078125 91.257812 -87.566406 86.71875 -92.671875 C 82.1875 -97.773438 75.875 -100.328125 67.78125 -100.328125 Z M 67.78125 -100.328125 "/></g></g></g></svg>